<svg width="50" height="50" viewBox="0 0 50 50" fill="none" xmlns="http://www.w3.org/2000/svg">
<rect x="0.5" y="0.5" width="49" height="49" rx="10.8208" fill="white" stroke="#222222" stroke-opacity="0.14"/>
<g transform="translate(3.5 8)">
<g filter="url(#header_b_shadow)">
<path d="M38.9213 4.3138C38.0383 4.26852 37.1553 4.32512 36.2723 4.48361C35.4119 4.6421 34.6195 5.00437 33.8949 5.5704C35.027 6.1138 35.9553 6.80437 36.6798 7.6421C37.427 8.47984 37.8006 9.57795 37.8006 10.9364C37.8006 11.9553 37.5289 12.8157 36.9855 13.5176C36.4647 14.2195 35.8081 14.7968 35.0157 15.2496C34.2232 15.7025 33.3629 16.0421 32.4346 16.2685C31.5289 16.4949 30.6912 16.6308 29.9213 16.6761V16.744C31.9817 16.7893 33.5553 17.2195 34.6421 18.0346C35.7515 18.8497 36.3063 20.0383 36.3063 21.6006C36.3063 22.7327 35.9893 23.7742 35.3553 24.7251C34.7213 25.6534 33.8949 26.4572 32.8761 27.1364C31.8798 27.8157 30.7591 28.3478 29.5138 28.7327C28.2685 29.1176 27.0232 29.31 25.7779 29.31C25.3025 29.31 24.8044 29.2534 24.2836 29.1402C23.7629 29.027 23.2874 28.8459 22.8572 28.5968C22.4496 28.3251 22.11 27.9855 21.8383 27.578C21.5666 27.1704 21.4308 26.6723 21.4308 26.0836C21.4308 25.3138 21.6572 24.7025 22.11 24.2497C22.5855 23.7742 23.2081 23.5364 23.978 23.5364C24.4761 23.5364 24.9176 23.6383 25.3025 23.8421C25.6874 24.0459 25.9817 24.2723 26.1855 24.5213C25.8006 24.861 25.427 25.2798 25.0647 25.778C24.7251 26.2761 24.5553 26.8081 24.5553 27.3742C24.5553 27.827 24.6912 28.178 24.9629 28.427C25.2572 28.6534 25.6421 28.7666 26.1176 28.7666C26.8195 28.7666 27.4987 28.5402 28.1553 28.0874C28.8346 27.6119 29.4346 27.0119 29.9553 26.2874C30.4761 25.5629 30.8949 24.7478 31.2119 23.8421C31.5289 22.9364 31.6874 22.0421 31.6874 21.1591C31.6874 20.2987 31.5402 19.5855 31.2459 19.0195C30.9742 18.4534 30.6006 18.0119 30.1251 17.6949C29.6496 17.378 29.1176 17.1742 28.5289 17.0836C27.9402 16.993 27.3402 17.0044 26.7289 17.1176L26.8647 16.8119C28.993 16.4723 30.6685 15.7251 31.8912 14.5704C33.1138 13.393 33.7251 11.8647 33.7251 9.9855C33.7251 9.35154 33.6232 8.77418 33.4195 8.25342C33.2383 7.71003 32.9213 7.21191 32.4685 6.75908C31.11 8.11757 29.944 9.62323 28.9704 11.2761C27.9968 12.9063 27.0572 14.5478 26.1515 16.2006C25.2685 17.8534 24.3629 19.4497 23.4346 20.9893C22.5289 22.5289 21.4534 23.8987 20.2081 25.0987C18.9855 26.2761 17.5251 27.227 15.827 27.9515C14.1515 28.6761 12.1025 29.0383 9.67984 29.0383C8.93267 29.0383 8.20814 28.9591 7.50625 28.8006C6.827 28.6647 6.21568 28.4383 5.67229 28.1213C5.12889 27.8044 4.6987 27.3968 4.38172 26.8987C4.06474 26.378 3.90625 25.744 3.90625 24.9968C3.90625 24.3402 4.11002 23.7515 4.51757 23.2308C4.94776 22.71 5.54776 22.4497 6.31757 22.4497C6.97417 22.4497 7.50625 22.6308 7.9138 22.993C8.32134 23.3553 8.52512 23.8534 8.52512 24.4874C8.52512 25.3704 8.06097 25.9817 7.13267 26.3213C7.22323 27.1591 7.49493 27.7591 7.94776 28.1213C8.42323 28.461 9.02323 28.6308 9.74776 28.6308C10.9025 28.6308 11.9327 28.3704 12.8383 27.8497C13.7666 27.3289 14.6157 26.627 15.3855 25.744C16.1779 24.861 16.9251 23.8421 17.627 22.6874C18.3289 21.5327 19.0308 20.3213 19.7327 19.0534C20.4346 17.7629 21.1591 16.461 21.9063 15.1478C22.6534 13.8346 23.4685 12.5893 24.3515 11.4119C25.2572 10.2119 26.2421 9.12512 27.3063 8.15154C28.393 7.15531 29.6157 6.34022 30.9742 5.70625C30.4534 5.4572 29.7289 5.21946 28.8006 4.99304C27.8723 4.76663 26.7063 4.65342 25.3025 4.65342C23.31 4.65342 21.4195 4.9704 19.6308 5.60437C17.8421 6.21569 16.2798 7.07606 14.944 8.1855C13.6308 9.27229 12.5779 10.5629 11.7855 12.0572C11.0157 13.5289 10.6308 15.1251 10.6308 16.8459C10.6308 17.4119 10.6987 17.944 10.8346 18.4421C10.993 18.9402 11.2081 19.3817 11.4798 19.7666C11.7742 20.1289 12.1478 20.4232 12.6006 20.6497C13.0534 20.8534 13.5855 20.9553 14.1968 20.9553C15.0346 20.9553 15.7591 20.7176 16.3704 20.2421C16.9817 19.7666 17.4912 19.178 17.8987 18.4761C18.3063 17.7515 18.6119 16.9704 18.8157 16.1327C19.0195 15.2723 19.1213 14.4685 19.1213 13.7213C19.1213 13.0647 19.0081 12.3629 18.7817 11.6157C18.5553 10.8685 18.2836 10.1893 17.9666 9.57795L18.3063 9.4421C18.6232 10.0987 18.9063 10.7553 19.1553 11.4119C19.4044 12.0459 19.5289 12.8723 19.5289 13.8912C19.5289 14.978 19.3591 16.0308 19.0195 17.0496C18.7025 18.0459 18.2157 18.9289 17.5591 19.6987C16.9251 20.4685 16.1327 21.0912 15.1817 21.5666C14.2534 22.0195 13.1666 22.2459 11.9213 22.2459C11.1289 22.2459 10.4044 22.11 9.74776 21.8383C9.1138 21.544 8.5704 21.1478 8.11757 20.6497C7.66474 20.1515 7.3138 19.5742 7.06474 18.9176C6.81568 18.261 6.69116 17.5478 6.69116 16.778C6.69116 15.51 6.96285 14.3213 7.50625 13.2119C8.04965 12.0798 8.7855 11.0496 9.7138 10.1213C10.6421 9.19305 11.7176 8.36663 12.9402 7.6421C14.1855 6.91757 15.4987 6.30625 16.8798 5.80814C18.261 5.28738 19.6761 4.90248 21.1251 4.65342C22.5968 4.38172 24.0119 4.24587 25.3704 4.24587C26.7742 4.24587 28.11 4.32512 29.3779 4.48361C30.6459 4.61946 31.6761 4.80059 32.4685 5.02701C32.9213 4.84588 33.3855 4.68739 33.861 4.55154C34.3364 4.41569 34.8346 4.30248 35.3553 4.21191C36.4195 4.00814 37.6081 3.90625 38.9213 3.90625V4.3138Z" fill="#6BCCFF"/>
</g>
<defs>
<filter id="header_b_shadow" x="0" y="0" width="42.8276" height="33.2163" filterUnits="userSpaceOnUse" color-interpolation-filters="sRGB">
<feFlood flood-opacity="0" result="BackgroundImageFix"/>
<feColorMatrix in="SourceAlpha" type="matrix" values="0 0 0 0 0 0 0 0 0 0 0 0 0 0 0 0 0 0 127 0" result="hardAlpha"/>
<feOffset/>
<feGaussianBlur stdDeviation="1.95312"/>
<feComposite in2="hardAlpha" operator="out"/>
<feColorMatrix type="matrix" values="0 0 0 0 0.592157 0 0 0 0 0.862745 0 0 0 0 0.996078 0 0 0 0.16 0"/>
<feBlend mode="normal" in2="BackgroundImageFix" result="effect1_dropShadow_29_458"/>
<feBlend mode="normal" in="SourceGraphic" in2="effect1_dropShadow_29_458" result="shape"/>
</filter>
</defs>
</g>
</svg>
